<svg xmlns="http://www.w3.org/2000/svg" version="1.1" xmlns:xlink="http://www.w3.org/1999/xlink" xmlns:svgjs="http://svgjs.dev/svgjs" width="1000" height="1000" viewBox="0 0 1000 1000"><rect width="1000" height="1000" fill="#000000"></rect><g transform="matrix(0.7,0,0,0.7,150.0000000000001,106.25)"><svg viewBox="0 0 320 360" data-background-color="#2e4e09" preserveAspectRatio="xMidYMid meet" height="1125" width="1000" xmlns="http://www.w3.org/2000/svg" xmlns:xlink="http://www.w3.org/1999/xlink"><g id="tight-bounds" transform="matrix(1,0,0,1,0,0)"><svg viewBox="0 0 320 360" height="360" width="320"><g><svg></svg></g><g><svg viewBox="0 0 320 360" height="360" width="320"><g><path xmlns="http://www.w3.org/2000/svg" d="M20.961 227.22l3.726 4.658-1.863-6.056c-0.466-2.795-3.726 0.466-1.863 1.398M25.153 224.425c1.397 2.329 2.795 4.658 2.795 6.987 0 3.261 2.795 4.658 5.123 5.589-3.261-3.726-5.124-13.974-7.918-12.576M204.017 26.929c7.918 0 15.371-0.932 23.756 0.931 20.495 5.124 37.729 15.371 49.374 29.811l32.606 52.169c1.397 13.042 4.192 27.482 3.726 43.319 3.261 0 2.795-4.658 6.521-5.59-3.726 9.316-5.59 20.961-6.521 34.469-2.329-7.453 0-18.632 0.466-24.687-3.261 5.124-5.124 1.397-5.124-0.932 0.466-3.726-1.397-3.261-2.795-4.658-5.124-4.658-8.384-9.782-12.11-17.7 2.329-6.055 2.795-14.905-4.658-19.563-2.329-1.397-5.124-3.726-6.521-7.453-1.863-5.124-5.124-11.179-4.193-19.097 0.466-2.329-6.987 5.124-11.179 1.863-18.166-12.576-36.332-27.016-58.224-39.127-11.645 0-20.029-4.192-24.221-9.316-3.726-4.658-0.932-10.713 4.658-11.179 3.261 0 6.987-0.932 9.782 0.932 0.466-1.863 2.329-4.192 4.657-4.192M157.904 16.215l0.932 0.466c4.658 0.932 6.987 7.453 12.11 5.124 0 3.261 0.466 6.521-0.466 8.85-1.397 3.726-5.59 3.726-8.85 3.726-31.208-1.863-49.374 11.179-68.471 22.358-5.124 3.261-10.713 5.59-14.906 9.782-20.029 18.632-41.921 35.866-47.045 70.335l-4.192 38.195c-0.466 4.192-5.124 8.384-4.192 13.508l3.26 22.824c-3.261-3.261-5.124 0.932-4.192 2.795 0.466 1.397 2.329 6.055 5.124 1.863 3.726 6.987 7.453 20.495 12.576 26.55 15.837 18.632 36.332 35.4 53.101 52.169 4.192-0.932 7.453-0.932 8.384-3.727 1.397 2.795-1.397 5.59-3.726 6.056 7.453 4.658 15.837 8.85 27.016 9.781 14.44 0.932 27.948 3.261 40.524 6.522 6.521-1.863 13.042-2.795 20.029-3.261 2.329 0 3.726-3.726 6.521-4.658l0.466-4.658c2.795 4.192 2.329-1.397 0.466-4.192 3.261 2.795 4.192 5.124 5.589 6.987 0-1.397 3.726-6.521 3.727-0.466l0.931-6.055c1.397-0.932 1.863 5.124 3.261 0.931 1.397-4.192 4.192-0.932 6.987-2.329-0.932 1.863-0.466 5.59 2.794 3.261l3.727-3.261c2.329 5.59 6.055 3.261 7.918 2.329 20.495-13.042 40.99-28.413 60.553-43.784l-0.466 6.055 2.329-7.453c2.329 2.329 4.192 0.466 5.124-0.931 2.795-4.658 6.521-9.316 12.577-13.508-7.453 20.029-16.303 35.866-27.482 48.908l-4.658 5.59c0 3.261-0.932 7.453-4.658 7.918-1.863 0.466-5.59-0.932-8.384 1.863-1.397 1.863 3.261 5.59-0.466 2.795-3.261-2.329-6.521 0-10.248 0.932-2.795 0.932 1.863 3.726 2.795 5.589 0.932 1.863 1.863 3.726 1.398 6.056l-5.124-5.59c-6.055 3.261-9.782 9.316-14.906 13.974-2.329 1.863-1.397 5.124-1.397 7.918-3.261 0-6.987-0.932-8.85 0.932-1.397 1.863-0.932 4.658-0.932 7.453-4.658-0.466-5.124-7.453-9.315-6.056-4.192 0.932-8.85 1.397-12.577 3.727 2.795 5.59-4.658 2.329-3.726 3.26-6.987-4.192-13.042-7.453-20.495-4.658-15.837-5.124-35.4-2.795-49.84-0.931 0-2.329 0.466-4.658-0.466-5.124-0.932 2.329-3.726 1.397-3.26 1.397-8.85-6.055-17.7-9.782-27.016-14.905-8.384 0.932-16.303-3.261-18.632-5.59-6.521-6.055-13.974-2.795-20.029-4.192-13.042-3.261-17.7-16.769-19.098-26.084-0.932-4.658-4.658-6.521-6.055-6.056-6.055-19.563-15.371-37.263-22.824-55.429-1.863-4.658-1.397-9.316-1.397-14.44 2.329 0.932 4.658 0.466 4.192-2.794-2.329-15.371-7.918-27.016-13.974-38.195 3.261-15.837 3.726-34.469 11.179-48.443 6.521-12.576 18.632-19.098 27.016-29.811 2.795-3.726 2.795-8.85 5.59-12.11 9.316-9.316 18.632-19.098 28.879-27.482 4.658-3.726 10.247 0 17.234-1.397 2.329-8.384 11.645-15.837 20.495-13.508 3.726 0.932 11.179-8.85 13.508-9.782 3.726-1.397 1.863 3.726 1.863 6.987 8.85-6.987 20.961-10.713 32.14-14.906" fill="#ffffff" fill-rule="nonzero" stroke="none" stroke-width="1" stroke-linecap="butt" stroke-linejoin="miter" stroke-miterlimit="10" stroke-dasharray="" stroke-dashoffset="0" font-family="none" font-weight="none" font-size="none" text-anchor="none" style="mix-blend-mode: normal" data-fill-palette-color="tertiary"></path></g><g transform="matrix(1,0,0,1,64,145.24126390578454)"><svg viewBox="0 0 192 69.5174721884309" height="69.5174721884309" width="192"><g><svg viewBox="0 0 192 69.5174721884309" height="69.5174721884309" width="192"><g><svg viewBox="0 0 192 69.5174721884309" height="69.5174721884309" width="192"><g transform="matrix(1,0,0,1,0,42.0176453785937)"><svg viewBox="0 0 192 27.4998268098372" height="27.4998268098372" width="192"><g id="textblocktransform"><svg viewBox="0 0 192 27.4998268098372" height="27.4998268098372" width="192" id="textblock"><g><svg viewBox="0 0 192 27.4998268098372" height="27.4998268098372" width="192"><g transform="matrix(1,0,0,1,0,0)"><svg width="192" viewBox="3.25 -40.29999923706055 288.67999267578125 41.349998474121094" height="27.4998268098372" data-palette-color="#ffffff"><path d="M38.5-40.2L38.5-27.45 36.75-26.85 30-36.75 24.2-36.75 24.2-3.95 29.5-2.25 28.4 0 12.7 0 12.7-1.8 17.4-5.5 17.4-36.75 11.75-36.75 5-26.85 3.25-27.45 3.25-40.2 6.15-39.3 35.6-39.3 38.5-40.2ZM66.5-8.75Q66.5-10.3 65.25-11.65 64-13 62.15-14.13 60.3-15.25 57.15-16.9L57.15-16.9Q53.4-18.85 51.07-20.3 48.75-21.75 47.12-23.73 45.5-25.7 45.5-28.1L45.5-28.1Q45.5-30.6 47.62-33.48 49.75-36.35 52.85-38.33 55.95-40.3 58.55-40.3L58.55-40.3Q61.7-40.3 65.87-39.55 70.05-38.8 72-37.95L72-37.95 72-28 69.55-28Q67.2-32.05 64.35-34.3 61.5-36.55 58.35-36.55L58.35-36.55Q55.65-36.55 54.1-34.88 52.55-33.2 52.55-30.55L52.55-30.55Q52.55-28.9 53.82-27.48 55.1-26.05 57-24.9 58.9-23.75 62.1-22.1L62.1-22.1Q65.9-20.1 68.12-18.7 70.35-17.3 71.92-15.4 73.5-13.5 73.5-11.15L73.5-11.15Q73.5-8.65 71.22-5.78 68.95-2.9 65.65-0.93 62.35 1.05 59.65 1.05L59.65 1.05Q56.35 1.05 51.8 0.3 47.25-0.45 45.25-1.3L45.25-1.3 45.25-11.25 47.7-11.25Q50.2-7.2 53.37-4.95 56.55-2.7 59.9-2.7L59.9-2.7Q61.9-2.7 63.4-3.55 64.9-4.4 65.7-5.78 66.5-7.15 66.5-8.75L66.5-8.75ZM120.84-37.5L116-33.75 102.09-1.6 96.25 0.95 81.7-34.15 76.7-37.05 77.8-39.3 93.7-39.3 93.7-37.5 88.84-33.95 100.65-5.4 112.9-33.9 104.34-37.05 105.45-39.3 120.84-39.3 120.84-37.5ZM140.54-2.3L139.44-0.05 123.74-0.05 123.74-1.85 128.44-5.55 128.44-35.35 123.14-37.05 124.29-39.3 139.99-39.3 139.99-37.5 135.24-33.75 135.24-4 140.54-2.3ZM178.99 0.9L176.09 0 145.74 0 145.74-1.8 150.44-5.5 150.44-35.35 145.14-37.05 146.29-39.3 161.99-39.3 161.99-37.5 157.24-33.8 157.24-2.55 169.79-2.55 177.24-13.5 178.99-12.85 178.99 0.9ZM201.89-2.3L200.79-0.05 185.09-0.05 185.09-1.85 189.79-5.55 189.79-35.35 184.49-37.05 185.64-39.3 201.34-39.3 201.34-37.5 196.59-33.75 196.59-4 201.89-2.3ZM247.74-37.5L242.99-33.8 242.99-15.5Q242.99-10.25 240.44-6.5 237.88-2.75 234.13-0.88 230.38 1 226.84 1L226.84 1Q222.28 1 218.71-0.98 215.13-2.95 213.13-6.43 211.13-9.9 211.13-14.25L211.13-14.25 211.13-35.35 205.88-37.05 206.99-39.3 222.69-39.3 222.69-37.5 217.94-33.8 217.94-16.55Q217.94-10.4 220.99-6.95 224.03-3.5 230.24-3.5L230.24-3.5Q232.53-3.5 234.76-4.98 236.99-6.45 238.44-9.3 239.88-12.15 239.88-16.05L239.88-16.05 239.88-34.55 234.59-37.05 235.69-39.3 247.74-39.3 247.74-37.5ZM263.48-4.05L268.78-2.3 267.68-0.05 251.98-0.05 251.98-1.85 256.68-5.55 256.68-35.35 251.38-37.05 252.53-39.3 268.23-39.3 268.23-37.5 263.48-33.75 263.48-4.05ZM291.93-2.35L290.78-0.1 281.43-0.1 266.18-19.8 281.33-33.05 275.53-37.15 276.68-39.4 290.43-39.4 290.43-37.6 272.78-22.15 286.18-5.1 291.93-2.35Z" opacity="1" transform="matrix(1,0,0,1,0,0)" fill="#ffffff" class="undefined-text-0" data-fill-palette-color="primary" id="text-0"></path></svg></g></svg></g></svg></g></svg></g><g transform="matrix(1,0,0,1,81.2962893639842,0)"><svg viewBox="0 0 29.407421272031602 38.004760651195014" height="38.004760651195014" width="29.407421272031602"><g><svg xmlns="http://www.w3.org/2000/svg" xmlns:xlink="http://www.w3.org/1999/xlink" version="1.1" x="0" y="0" viewBox="12.982999801635742 1 75.68599700927734 97.81300354003906" enable-background="new 0 0 100 100" xml:space="preserve" height="38.004760651195014" width="29.407421272031602" class="icon-icon-0" data-fill-palette-color="accent" id="icon-0"><g fill="#ffffff" data-fill-palette-color="accent"><polygon fill-rule="evenodd" clip-rule="evenodd" points="12.983,10.59 30.001,98.813 24.129,39.764 53.15,37.872 53.096,27.989    64.549,1 53.622,18.977  " fill="#ffffff" data-fill-palette-color="accent"></polygon><polygon fill-rule="evenodd" clip-rule="evenodd" points="59.389,54.548 64.549,1.007 55.809,40.723 36.197,41.768 37.767,62.23    30.001,98.813 42.058,58.914  " fill="#ffffff" data-fill-palette-color="accent"></polygon><polygon fill-rule="evenodd" clip-rule="evenodd" points="62.8,67.182 63.349,56.729 47.37,60.484 47.338,72.281 30.001,98.813    51.681,71.197  " fill="#ffffff" data-fill-palette-color="accent"></polygon><polygon fill-rule="evenodd" clip-rule="evenodd" points="65.711,62.394 80.552,57.663 82.061,45.131 66.162,47.226  " fill="#ffffff" data-fill-palette-color="accent"></polygon><polygon fill-rule="evenodd" clip-rule="evenodd" points="72.07,44.502 83.058,43.085 84.639,32.807 76.56,32.434 64.549,1    72.979,31.967  " fill="#ffffff" data-fill-palette-color="accent"></polygon><polygon fill-rule="evenodd" clip-rule="evenodd" points="87.413,31.294 88.669,21.788 79.125,19.094 64.549,1 79.032,23.437    78.61,30.437  " fill="#ffffff" data-fill-palette-color="accent"></polygon></g></svg></g></svg></g><g></g></svg></g></svg></g></svg></g></svg></g><defs></defs></svg><rect width="320" height="360" fill="none" stroke="none" visibility="hidden"></rect></g></svg></g></svg>